<svg width="29" height="29" viewBox="0 0 29 29" fill="none" xmlns="http://www.w3.org/2000/svg">
<path d="M14.5 2.41663C9.82375 2.41663 6.04166 6.19871 6.04166 10.875C6.04166 15.9137 11.3825 22.8616 13.5817 25.5079C14.065 26.0879 14.9471 26.0879 15.4304 25.5079C17.6175 22.8616 22.9583 15.9137 22.9583 10.875C22.9583 6.19871 19.1763 2.41663 14.5 2.41663ZM14.5 13.8958C12.8325 13.8958 11.4792 12.5425 11.4792 10.875C11.4792 9.20746 12.8325 7.85413 14.5 7.85413C16.1675 7.85413 17.5208 9.20746 17.5208 10.875C17.5208 12.5425 16.1675 13.8958 14.5 13.8958Z" fill="#1C1C1C"/>
</svg>
