<svg width="29" height="29" viewBox="0 0 29 29" fill="none" xmlns="http://www.w3.org/2000/svg">
<path d="M24.1667 4.83337H4.83335C3.50419 4.83337 2.41669 5.92087 2.41669 7.25004V21.75C2.41669 23.0792 3.50419 24.1667 4.83335 24.1667H24.1667C25.4959 24.1667 26.5834 23.0792 26.5834 21.75V7.25004C26.5834 5.92087 25.4959 4.83337 24.1667 4.83337ZM23.6834 9.96879L15.7809 14.9109C14.9954 15.4063 14.0046 15.4063 13.2192 14.9109L5.31669 9.96879C5.0146 9.77546 4.83335 9.44921 4.83335 9.09879C4.83335 8.28921 5.71544 7.80587 6.40419 8.22879L14.5 13.2917L22.5959 8.22879C23.2846 7.80587 24.1667 8.28921 24.1667 9.09879C24.1667 9.44921 23.9854 9.77546 23.6834 9.96879Z" fill="#1C1C1C"/>
</svg>
