<svg width="14" height="17" viewBox="0 0 14 17" fill="none" xmlns="http://www.w3.org/2000/svg">
<path d="M7.19 16.967C7.06679 17.0109 6.93221 17.0109 6.809 16.967C-0.170999 14.498 -0.0619984 8.64901 0.0180016 4.37701C0.0260016 3.91801 0.0340016 3.48401 0.0340016 3.06501C0.0326689 2.9087 0.0934188 2.75825 0.202913 2.6467C0.312407 2.53514 0.461696 2.47159 0.618002 2.47001C3.112 2.47001 5.01 1.73801 6.593 0.16801C6.64633 0.114523 6.70968 0.0720851 6.77944 0.043129C6.84919 0.0141728 6.92397 -0.000732422 6.9995 -0.000732422C7.07503 -0.000732422 7.14981 0.0141728 7.21957 0.043129C7.28932 0.0720851 7.35268 0.114523 7.406 0.16801C8.989 1.73801 10.888 2.47001 13.383 2.47001C13.5391 2.47186 13.6882 2.53552 13.7974 2.64705C13.9067 2.75858 13.9673 2.90887 13.966 3.06501C13.966 3.48501 13.974 3.91801 13.983 4.37701C14.063 8.64801 14.172 14.498 7.191 16.967H7.19ZM12.817 4.40001C12.812 4.14201 12.807 3.89201 12.805 3.64801C10.467 3.54701 8.599 2.82501 7 1.40301C5.4 2.82501 3.533 3.54701 1.197 3.64801L1.184 4.40001C1.104 8.69401 1.014 13.555 7 15.774C12.987 13.554 12.897 8.69401 12.816 4.40001H12.817ZM9.833 6.43301C9.94259 6.54575 10.0039 6.69678 10.0039 6.85401C10.0039 7.01124 9.94259 7.16227 9.833 7.27501L6.606 10.567C6.55248 10.6223 6.48838 10.6663 6.41752 10.6963C6.34665 10.7264 6.27047 10.7419 6.1935 10.7419C6.11653 10.7419 6.04035 10.7264 5.96949 10.6963C5.89862 10.6663 5.83452 10.6223 5.781 10.567L4.167 8.92001C4.05718 8.80739 3.99571 8.65631 3.99571 8.49901C3.99571 8.3417 4.05718 8.19063 4.167 8.07801C4.22059 8.02282 4.28472 7.97895 4.35557 7.94899C4.42643 7.91903 4.50257 7.9036 4.5795 7.9036C4.65643 7.9036 4.73258 7.91903 4.80343 7.94899C4.87429 7.97895 4.93841 8.02282 4.992 8.07801L6.193 9.30401L9.008 6.43201C9.0616 6.37682 9.12572 6.33295 9.19657 6.30299C9.26743 6.27303 9.34357 6.2576 9.4205 6.2576C9.49743 6.2576 9.57358 6.27303 9.64443 6.30299C9.71529 6.33295 9.77941 6.37682 9.833 6.43201V6.43301Z" fill="#787878"/>
</svg>
